<svg width="117" height="37" viewBox="0 0 117 37" fill="none" xmlns="http://www.w3.org/2000/svg">
<path d="M0.91 15.9C0.91 14.1147 1.30867 12.52 2.106 11.116C2.92067 9.69467 4.02133 8.594 5.408 7.814C6.812 7.01667 8.38067 6.618 10.114 6.618C12.142 6.618 13.9187 7.138 15.444 8.178C16.9693 9.218 18.0353 10.6567 18.642 12.494H14.456C14.04 11.6273 13.4507 10.9773 12.688 10.544C11.9427 10.1107 11.076 9.894 10.088 9.894C9.03067 9.894 8.086 10.1453 7.254 10.648C6.43933 11.1333 5.798 11.8267 5.33 12.728C4.87933 13.6293 4.654 14.6867 4.654 15.9C4.654 17.096 4.87933 18.1533 5.33 19.072C5.798 19.9733 6.43933 20.6753 7.254 21.178C8.086 21.6633 9.03067 21.906 10.088 21.906C11.076 21.906 11.9427 21.6893 12.688 21.256C13.4507 20.8053 14.04 20.1467 14.456 19.28H18.642C18.0353 21.1347 16.9693 22.582 15.444 23.622C13.936 24.6447 12.1593 25.156 10.114 25.156C8.38067 25.156 6.812 24.766 5.408 23.986C4.02133 23.1887 2.92067 22.088 2.106 20.684C1.30867 19.28 0.91 17.6853 0.91 15.9ZM29.343 10.388C30.435 10.388 31.4057 10.6307 32.255 11.116C33.1044 11.584 33.763 12.286 34.231 13.222C34.7164 14.1407 34.959 15.25 34.959 16.55V25H31.319V17.044C31.319 15.9 31.033 15.0247 30.461 14.418C29.889 13.794 29.109 13.482 28.121 13.482C27.1157 13.482 26.3184 13.794 25.729 14.418C25.157 15.0247 24.871 15.9 24.871 17.044V25H21.231V5.76H24.871V12.39C25.339 11.766 25.963 11.2807 26.743 10.934C27.523 10.57 28.3897 10.388 29.343 10.388ZM36.9645 17.746C36.9645 16.29 37.2505 14.9987 37.8225 13.872C38.4118 12.7453 39.2005 11.8787 40.1885 11.272C41.1938 10.6653 42.3118 10.362 43.5425 10.362C44.6172 10.362 45.5532 10.5787 46.3505 11.012C47.1652 11.4453 47.8152 11.9913 48.3005 12.65V10.596H51.9665V25H48.3005V22.894C47.8325 23.57 47.1825 24.1333 46.3505 24.584C45.5358 25.0173 44.5912 25.234 43.5165 25.234C42.3032 25.234 41.1938 24.922 40.1885 24.298C39.2005 23.674 38.4118 22.7987 37.8225 21.672C37.2505 20.528 36.9645 19.2193 36.9645 17.746ZM48.3005 17.798C48.3005 16.914 48.1272 16.16 47.7805 15.536C47.4338 14.8947 46.9658 14.4093 46.3765 14.08C45.7872 13.7333 45.1545 13.56 44.4785 13.56C43.8025 13.56 43.1785 13.7247 42.6065 14.054C42.0345 14.3833 41.5665 14.8687 41.2025 15.51C40.8558 16.134 40.6825 16.8793 40.6825 17.746C40.6825 18.6127 40.8558 19.3753 41.2025 20.034C41.5665 20.6753 42.0345 21.1693 42.6065 21.516C43.1958 21.8627 43.8198 22.036 44.4785 22.036C45.1545 22.036 45.7872 21.8713 46.3765 21.542C46.9658 21.1953 47.4338 20.71 47.7805 20.086C48.1272 19.4447 48.3005 18.682 48.3005 17.798ZM59.2396 13.586V20.554C59.2396 21.0393 59.3522 21.3947 59.5776 21.62C59.8202 21.828 60.2189 21.932 60.7736 21.932H62.4636V25H60.1756C57.1076 25 55.5736 23.5093 55.5736 20.528V13.586H53.8576V10.596H55.5736V7.034H59.2396V10.596H62.4636V13.586H59.2396ZM64.1717 17.928C64.1717 16.472 64.4577 15.198 65.0297 14.106C65.619 13.014 66.425 12.1733 67.4477 11.584C68.4877 10.9947 69.6663 10.7 70.9837 10.7C72.4743 10.7 73.7397 11.064 74.7797 11.792C75.8197 12.52 76.5477 13.4473 76.9637 14.574V10.882H78.1337V25H76.9637V21.282C76.5477 22.426 75.811 23.3707 74.7537 24.116C73.7137 24.844 72.457 25.208 70.9837 25.208C69.6663 25.208 68.4877 24.9133 67.4477 24.324C66.425 23.7173 65.619 22.868 65.0297 21.776C64.4577 20.6667 64.1717 19.384 64.1717 17.928ZM76.9637 17.928C76.9637 16.6973 76.7037 15.614 76.1837 14.678C75.681 13.7247 74.9877 12.9967 74.1037 12.494C73.2197 11.974 72.2317 11.714 71.1397 11.714C69.9957 11.714 68.9903 11.9653 68.1237 12.468C67.257 12.9533 66.581 13.664 66.0957 14.6C65.6103 15.536 65.3677 16.6453 65.3677 17.928C65.3677 19.2107 65.6103 20.32 66.0957 21.256C66.581 22.192 67.257 22.9113 68.1237 23.414C69.0077 23.9167 70.013 24.168 71.1397 24.168C72.2317 24.168 73.2197 23.9167 74.1037 23.414C75.005 22.894 75.707 22.166 76.2097 21.23C76.7123 20.2767 76.9637 19.176 76.9637 17.928ZM83.0438 14.6C83.4425 13.456 84.1618 12.52 85.2018 11.792C86.2591 11.064 87.5331 10.7 89.0238 10.7C90.3411 10.7 91.5111 10.9947 92.5338 11.584C93.5738 12.1733 94.3798 13.014 94.9518 14.106C95.5411 15.198 95.8358 16.472 95.8358 17.928C95.8358 19.384 95.5411 20.6667 94.9518 21.776C94.3798 22.868 93.5738 23.7173 92.5338 24.324C91.5111 24.9133 90.3411 25.208 89.0238 25.208C87.5505 25.208 86.2851 24.844 85.2278 24.116C84.1878 23.3707 83.4598 22.4347 83.0438 21.308V31.656H81.8738V10.882H83.0438V14.6ZM94.6398 17.928C94.6398 16.6453 94.3971 15.536 93.9118 14.6C93.4265 13.664 92.7418 12.9533 91.8578 12.468C90.9911 11.9653 89.9858 11.714 88.8418 11.714C87.7498 11.714 86.7618 11.974 85.8778 12.494C84.9938 12.9967 84.3005 13.7247 83.7978 14.678C83.2951 15.614 83.0438 16.6973 83.0438 17.928C83.0438 19.176 83.2951 20.2767 83.7978 21.23C84.3005 22.166 84.9938 22.894 85.8778 23.414C86.7618 23.9167 87.7498 24.168 88.8418 24.168C89.9858 24.168 90.9911 23.9167 91.8578 23.414C92.7418 22.9113 93.4265 22.192 93.9118 21.256C94.3971 20.32 94.6398 19.2107 94.6398 17.928ZM100.018 14.6C100.417 13.456 101.136 12.52 102.176 11.792C103.233 11.064 104.507 10.7 105.998 10.7C107.315 10.7 108.485 10.9947 109.508 11.584C110.548 12.1733 111.354 13.014 111.926 14.106C112.515 15.198 112.81 16.472 112.81 17.928C112.81 19.384 112.515 20.6667 111.926 21.776C111.354 22.868 110.548 23.7173 109.508 24.324C108.485 24.9133 107.315 25.208 105.998 25.208C104.525 25.208 103.259 24.844 102.202 24.116C101.162 23.3707 100.434 22.4347 100.018 21.308V31.656H98.8479V10.882H100.018V14.6ZM111.614 17.928C111.614 16.6453 111.371 15.536 110.886 14.6C110.401 13.664 109.716 12.9533 108.832 12.468C107.965 11.9653 106.96 11.714 105.816 11.714C104.724 11.714 103.736 11.974 102.852 12.494C101.968 12.9967 101.275 13.7247 100.772 14.678C100.269 15.614 100.018 16.6973 100.018 17.928C100.018 19.176 100.269 20.2767 100.772 21.23C101.275 22.166 101.968 22.894 102.852 23.414C103.736 23.9167 104.724 24.168 105.816 24.168C106.96 24.168 107.965 23.9167 108.832 23.414C109.716 22.9113 110.401 22.192 110.886 21.256C111.371 20.32 111.614 19.2107 111.614 17.928Z" fill="#7295D1"/>
</svg>
